<svg width="121" height="161" viewBox="0 0 121 161" fill="none" xmlns="http://www.w3.org/2000/svg">
<path d="M46.5792 1.05511C36.9169 2.10536 27.0445 4.4159 24.5239 6.0963C22.0033 7.98675 16.332 9.4571 12.131 9.4571C3.30892 9.4571 -0.892075 13.238 0.158173 20.3797C0.578273 23.7405 2.46872 25.4209 6.87976 26.2611C12.3411 27.1013 12.5511 27.5214 9.61041 30.252C7.29986 31.9324 6.03956 36.1334 6.03956 41.3846C6.03956 47.8962 7.50991 51.0469 12.3411 56.0881L18.6425 62.3896V90.5363C18.6425 118.263 18.6425 118.683 23.4737 118.683C30.8254 118.683 41.748 126.665 45.1088 134.437C46.7892 138.428 48.0495 145.989 48.0495 151.241V160.693H73.8856C91.1097 160.693 100.562 159.853 102.242 158.172C104.133 156.282 104.763 142.629 104.763 109.651V63.6499L111.064 56.2982C117.786 48.7364 119.676 35.7133 114.845 30.8822C112.955 28.9917 98.4614 28.3616 62.753 28.3616C30.1953 28.3616 14.4416 27.5214 16.5421 26.2611C18.2224 25.2108 25.7842 24.1606 33.346 23.9505C40.9078 23.9505 63.5932 22.2701 83.758 20.3797L120.517 16.8088V9.4571V2.10536L108.964 1.47521C80.3972 -0.41524 62.5429 -0.41524 46.5792 1.05511ZM107.494 5.2561C116.106 5.04605 117.366 5.6762 117.366 9.24705C117.366 11.7676 116.106 13.6581 114.845 13.6581C113.375 13.6581 88.169 15.5485 58.9721 18.0691C29.7752 20.5897 5.19937 22.0601 4.56922 21.4299C1.20842 18.0691 6.45966 13.6581 13.8114 13.6581C18.2224 13.6581 23.8938 12.1877 26.6244 10.5073C32.5058 6.30635 59.1821 3.36565 80.6072 4.4159C89.8494 4.836 101.822 5.2561 107.494 5.2561ZM112.745 39.7043C113.375 44.1153 111.905 47.4761 107.073 52.3072L100.562 59.0288L100.142 107.13L99.5117 155.442L76.1962 156.072L52.8806 156.702L51.8304 144.939C50.5701 130.446 45.739 123.514 32.5058 116.792L22.6335 111.751L23.0536 85.7051L23.4737 59.659L16.9621 52.9374C10.6607 46.4258 8.14006 37.3937 11.7109 33.8229C12.5511 33.1927 35.4465 32.7726 62.5429 32.9827L112.115 33.6128L112.745 39.7043Z" fill="#26B28D"/>
<path d="M62.753 60.0794C61.0726 60.9196 56.4515 62.81 52.6706 64.2803C42.5882 68.0612 38.1772 77.9336 41.538 89.2763C45.949 104.19 63.5932 108.811 75.566 98.0983C81.0273 93.2672 82.2876 90.5366 82.2876 83.3949C82.2876 74.5728 78.5067 67.4311 75.1459 69.5316C74.0957 70.1617 74.7258 72.6823 76.4062 75.2029C80.8173 81.5044 80.3972 85.9155 74.0957 93.2672C60.8626 109.231 37.337 93.2672 46.7892 74.9929C50.3601 68.2713 58.1319 64.2803 60.4425 68.0612C61.9128 70.1617 71.155 68.9014 71.155 66.3808C70.9449 62.6 65.4837 58.609 62.753 60.0794Z" fill="#26B28D"/>
<path d="M10.2404 133.386C3.93889 139.688 4.56904 150.821 11.5007 156.282C14.6514 158.802 19.2725 160.693 21.7931 160.693C29.565 160.693 37.5468 152.921 37.5468 145.149C37.5468 131.076 20.1127 123.514 10.2404 133.386ZM30.1951 137.587C38.8071 147.04 26.4142 160.693 15.4916 153.551C9.40018 149.56 8.77003 142.839 13.8112 137.167C18.2223 132.126 25.364 132.336 30.1951 137.587Z" fill="#26B28D"/>
</svg>
