<svg width="104" height="95" viewBox="0 0 104 95" fill="none" xmlns="http://www.w3.org/2000/svg">
<path d="M0 43.4889V86.9778L6.54444 80.4333L13.0889 73.8889V69.2444V64.6422L10.0067 67.6822C8.31778 69.3289 6.79778 70.7222 6.62889 70.7222C6.46 70.7222 6.33333 58.4778 6.33333 43.4889C6.33333 28.5 6.46 16.2556 6.67111 16.2556C6.84 16.2556 9.66889 18.9578 13.0044 22.2933L19 28.2889L18.9156 61.56C18.8311 79.8422 18.8733 94.7889 19 94.7889C19.1267 94.7889 26.5578 87.4422 35.5511 78.4489L51.9333 62.0667L68.4 78.5333L84.8667 95V85.5V75.9578L81.7 72.8333L78.5333 69.7089V74.3111V78.9556L65.2333 65.6556L51.9333 52.3556L38.6333 65.6556L25.3333 78.9556V52.1444V25.3333L12.6667 12.6667L0 3.98606e-06V43.4889Z" fill="#8CE99A"/>
<path d="M91.0733 12.7933L78.5333 25.3333V34.8333V44.3333L81.8266 47.6267L85.0777 50.8778L84.9511 39.6044L84.8244 28.3733L90.8622 22.3356C94.1555 19 97.0266 16.2556 97.1955 16.2556C97.3644 16.2556 97.5333 28.5 97.5333 43.4889C97.5333 58.4778 97.4066 70.7222 97.2377 70.7222C97.0266 70.7222 86.7666 60.5889 74.4377 48.26L51.9333 25.7556L41.5888 36.1L31.2444 46.4444V51.0889V55.7333L41.5888 45.3889L51.9333 35.0444L77.8999 61.0111L103.867 86.9778V43.5733C103.867 19.7178 103.824 0.211113 103.74 0.211113C103.698 0.211113 97.9977 5.86889 91.0733 12.7933Z" fill="#8CE99A"/>
</svg>
